<mxfile host="app.diagrams.net" modified="2024-06-23T08:49:18.609Z" agent="Mozilla/5.0 (Macintosh; Intel Mac OS X 10_15_7) AppleWebKit/537.36 (KHTML, like Gecko) Chrome/120.0.0.0 Whale/3.24.223.18 Safari/537.36" version="24.4.8" etag="lC8KhaXGQgoKSmCesV6p" type="github">
  <diagram name="페이지-1" id="f_ijAe2MVVdj1flssfW5">
    <mxGraphModel>
      <root>
        <mxCell id="0" />
        <mxCell id="1" parent="0" />
      </root>
    </mxGraphModel>
  </diagram>
</mxfile>
